<svg version="1.1" id="Layer_1" xmlns="http://www.w3.org/2000/svg" xmlns:xlink="http://www.w3.org/1999/xlink" x="0px" y="0px"
	 width="100%" viewBox="0 0 1024 576" enable-background="new 0 0 1024 576" xml:space="preserve">
<path fill="#000000" opacity="1.000000" stroke="none" 
	d="
M504.063416,263.417877 
	C504.005676,277.033844 503.881927,290.195740 504.018890,303.354919 
	C504.064819,307.768860 502.671387,309.581543 497.955414,309.429016 
	C482.409210,308.926056 484.974670,311.443573 484.754974,296.134125 
	C484.613922,286.306854 484.756409,276.475769 484.729309,266.646515 
	C484.711304,260.124207 484.677704,260.116394 477.944244,260.109924 
	C466.948700,260.099396 455.951691,259.995483 444.958435,260.152527 
	C441.037506,260.208527 439.330719,259.262634 439.468628,254.817444 
	C439.896606,241.023422 439.711609,241.021454 453.493713,241.021744 
	C461.990265,241.021912 470.492828,240.815659 478.980804,241.081848 
	C483.278595,241.216614 484.888336,239.913330 484.805450,235.443619 
	C484.570801,222.786575 484.882233,210.119598 484.662018,197.462021 
	C484.586639,193.130981 485.952545,191.266907 490.368500,191.685562 
	C492.845398,191.920410 495.387878,191.959564 497.856140,191.685104 
	C502.868103,191.127838 504.130066,193.514801 504.053345,198.100800 
	C503.847229,210.425308 504.128967,222.758102 503.911743,235.082245 
	C503.831146,239.654755 505.456726,241.222397 510.011597,241.124023 
	C521.168457,240.883026 532.335999,241.164932 543.495239,240.987457 
	C547.822937,240.918655 549.369873,242.535202 549.261108,246.865967 
	C548.876526,262.176453 551.431946,259.889374 535.998169,260.080475 
	C527.169983,260.189819 518.338806,260.042725 509.509369,260.085815 
	C507.275818,260.096710 504.582031,259.532623 504.063416,263.417877 
z"/>
<path fill="#000000" opacity="1.000000" stroke="none" 
	d="
M400.770874,359.000061 
	C400.768982,352.836121 400.533203,347.159241 400.843994,341.512390 
	C401.068665,337.430145 399.389771,336.302185 395.622101,336.352600 
	C385.462219,336.488525 375.296722,336.252350 365.138336,336.434967 
	C361.422150,336.501770 360.295197,335.373840 360.422729,331.558685 
	C360.748413,321.815887 360.545746,321.807007 370.299103,321.800842 
	C378.461945,321.795685 386.631439,321.599030 394.785034,321.872589 
	C399.231689,322.021759 400.999451,320.772064 400.857361,316.002899 
	C400.534973,305.184326 400.895111,294.346863 400.690796,283.522491 
	C400.612305,279.363892 401.676025,277.481323 406.265869,277.616455 
	C419.271423,277.999390 417.214996,276.205353 417.368011,288.849609 
	C417.474854,297.677429 417.634399,306.518402 417.269409,315.332733 
	C417.064697,320.276825 418.408905,322.144684 423.641846,321.919434 
	C433.120026,321.511383 442.633423,321.983002 452.121246,321.710327 
	C456.641907,321.580414 458.750061,323.014893 458.183960,327.671692 
	C458.064178,328.656769 458.071381,329.678802 458.179443,330.666351 
	C458.646362,334.934296 456.973694,336.609589 452.512665,336.474396 
	C443.192078,336.191925 433.856995,336.335236 424.528381,336.389587 
	C417.858551,336.428436 417.382660,336.938690 417.370331,343.447784 
	C417.350189,354.109406 417.236267,364.773346 417.427551,375.431549 
	C417.498444,379.381226 416.405609,381.221924 412.126373,381.164886 
	C398.946686,380.989075 400.929138,381.990387 400.782013,369.995178 
	C400.739105,366.497253 400.772583,362.998383 400.770874,359.000061 
z"/>
<path fill="#000000" opacity="1.000000" stroke="none" 
	d="
M458.186493,169.067017 
	C458.150391,178.146072 458.150391,178.152817 449.720154,178.158295 
	C441.226105,178.163818 432.732025,178.144424 424.237976,178.154083 
	C417.263306,178.162018 417.243164,178.173767 417.231140,184.934647 
	C417.212158,195.593811 417.099152,206.255157 417.284393,216.911118 
	C417.356049,221.032547 415.846893,222.430420 411.740143,222.414795 
	C402.014771,222.377777 401.877594,222.551163 401.549011,213.136856 
	C401.218109,203.655334 400.967834,194.158997 401.134003,184.677094 
	C401.219788,179.782730 399.820679,177.857239 394.629944,178.065842 
	C385.152039,178.446732 375.642181,177.977554 366.156616,178.247330 
	C361.565155,178.377899 359.655701,176.704956 360.053253,172.191635 
	C360.169708,170.869629 360.155334,169.521515 360.049927,168.197388 
	C359.769928,164.680237 361.452118,163.574936 364.813995,163.617157 
	C374.971863,163.744797 385.136230,163.487946 395.290222,163.722275 
	C399.611450,163.821991 401.213806,162.390961 401.133453,158.003769 
	C400.929108,146.849045 401.225433,135.685211 401.026428,124.530281 
	C400.951508,120.331268 402.614990,118.987877 406.606506,118.986130 
	C419.242523,118.980606 417.086517,118.831299 417.197540,129.345886 
	C417.297791,138.838272 417.427063,148.337540 417.167297,157.823471 
	C417.038971,162.509186 418.828979,163.850906 423.325073,163.725967 
	C433.143829,163.453125 442.977356,163.756973 452.801178,163.597946 
	C456.485291,163.538330 458.640533,164.499588 458.186493,169.067017 
z"/>
<path fill="#000000" opacity="1.000000" stroke="none" 
	d="
M593.242615,163.682983 
	C603.534851,163.687195 613.362915,163.826981 623.184082,163.627106 
	C627.127686,163.546829 628.372009,164.946945 628.346802,168.854950 
	C628.286072,178.292328 628.459473,178.294006 618.859802,178.292160 
	C610.200256,178.290497 601.535339,178.465393 592.883423,178.206955 
	C588.797363,178.084900 587.275024,179.365311 587.349365,183.556335 
	C587.547180,194.710052 587.269714,205.871887 587.440552,217.026520 
	C587.498901,220.831726 586.370300,222.414261 582.363831,222.336639 
	C569.317688,222.083862 571.081482,223.640762 570.969849,211.324310 
	C570.885315,201.999329 570.817322,192.670746 570.994080,183.348526 
	C571.068604,179.415955 569.587830,178.125046 565.708984,178.210556 
	C556.054871,178.423370 546.389099,178.125366 536.736023,178.361542 
	C532.383545,178.468033 530.441284,177.382370 530.580505,172.542725 
	C530.835083,163.690002 530.561890,163.682312 539.576416,163.682602 
	C548.402527,163.682892 557.231812,163.544662 566.053223,163.747864 
	C569.816284,163.834549 571.032288,162.335052 570.996643,158.766769 
	C570.883484,147.443909 571.120605,136.115433 570.866028,124.797150 
	C570.765381,120.318649 572.515747,119.054878 576.718994,119.037476 
	C587.437256,118.993118 587.425232,118.849663 587.408325,129.444046 
	C587.392944,139.102768 587.594116,148.766861 587.319824,158.417801 
	C587.199219,162.660812 588.720581,164.239700 593.242615,163.682983 
z"/>
<path fill="#000000" opacity="1.000000" stroke="none" 
	d="
M530.781860,333.813171 
	C530.674622,320.036194 529.309021,321.958069 541.992615,321.808044 
	C549.654419,321.717407 557.327148,321.558380 564.977478,321.865723 
	C569.516541,322.048035 571.165833,320.586945 571.046997,315.947632 
	C570.769653,305.126526 571.075012,294.291168 570.850769,283.467621 
	C570.762756,279.221771 572.032227,277.511536 576.524353,277.626038 
	C589.406921,277.954285 587.226074,276.498016 587.380554,288.588379 
	C587.493286,297.415710 587.394104,306.245819 587.383484,315.074677 
	C587.375488,321.767456 587.371277,321.795319 593.853149,321.806915 
	C603.514893,321.824249 613.180359,321.948212 622.836853,321.718933 
	C626.947815,321.621338 628.790649,323.008484 628.288086,327.167847 
	C628.208740,327.824371 628.282288,328.499146 628.281921,329.165466 
	C628.277954,336.363068 628.277771,336.368256 621.215027,336.368347 
	C612.219543,336.368500 603.224060,336.347229 594.228577,336.357849 
	C587.458313,336.365875 587.435059,336.381683 587.420593,343.372955 
	C587.397766,354.367340 587.298645,365.363525 587.472656,376.355133 
	C587.527222,379.797699 586.455688,381.088348 582.940613,381.067413 
	C569.058350,380.984589 571.037659,381.912659 570.954407,369.493256 
	C570.891846,360.165039 570.821899,350.833710 571.002808,341.508545 
	C571.077881,337.643250 569.752075,336.211761 565.796387,336.295898 
	C555.805969,336.508270 545.807678,336.398621 535.813232,336.321869 
	C533.971863,336.307739 531.621033,337.078125 530.781860,333.813171 
z"/>
<path fill="#000000" opacity="1.000000" stroke="none" 
	d="
M646.988281,257.213898 
	C632.151245,257.198730 632.152283,257.198730 632.168091,271.601715 
	C632.172241,275.429382 632.076050,279.259918 632.194519,283.083923 
	C632.304932,286.647095 630.817078,288.097107 627.179993,288.210968 
	C617.690186,288.508026 617.683044,288.620117 617.678955,279.289612 
	C617.676331,273.298431 617.581055,267.305328 617.706787,261.316864 
	C617.770325,258.290314 616.511414,257.148346 613.559570,257.190979 
	C607.237000,257.282257 600.908142,257.064972 594.589294,257.241241 
	C589.304321,257.388702 589.863098,253.818787 589.850891,250.466125 
	C589.838623,247.081039 589.377991,243.581635 594.641541,243.744598 
	C600.959106,243.940170 607.289185,243.691742 613.611328,243.792892 
	C616.611450,243.840866 617.757019,242.628143 617.710083,239.639893 
	C617.595276,232.319199 617.808289,224.992233 617.628052,217.674225 
	C617.541626,214.164001 618.979553,212.793900 622.324951,213.001068 
	C623.319153,213.062637 624.321289,212.991058 625.319763,212.990372 
	C631.769836,212.986008 632.130554,213.320877 632.161865,219.697296 
	C632.194580,226.353943 632.261536,233.012039 632.157043,239.667038 
	C632.110168,242.658112 633.315430,243.866501 636.293640,243.812378 
	C642.116516,243.706543 647.957581,244.039764 653.762634,243.701263 
	C658.486877,243.425766 660.195068,245.213760 659.384460,249.749298 
	C659.269043,250.395203 659.286499,251.086792 659.366333,251.742111 
	C659.867432,255.850632 658.090332,257.583038 653.970215,257.229431 
	C651.823059,257.045166 649.646179,257.207855 646.988281,257.213898 
z"/>
<path fill="#000000" opacity="1.000000" stroke="none" 
	d="
M502.035583,407.819946 
	C501.781982,410.511871 502.905090,413.582733 500.221741,414.536469 
	C496.620422,415.816559 492.642334,415.641510 488.952911,414.500458 
	C487.291016,413.986481 487.673431,411.969238 487.666077,410.511536 
	C487.632599,403.854553 487.340027,397.177948 487.751648,390.546326 
	C488.075928,385.321564 486.046906,383.836304 481.130829,384.157440 
	C475.662140,384.514648 470.144196,384.052124 464.661804,384.282532 
	C458.531616,384.540192 459.964691,380.231812 459.720367,376.776428 
	C459.462036,373.121887 460.098389,370.642242 464.722321,370.871277 
	C470.366364,371.150818 476.044922,370.714111 481.691650,370.965790 
	C486.088501,371.161774 488.046509,369.900055 487.751587,365.081299 
	C487.355804,358.614929 487.899536,352.093750 487.575684,345.619324 
	C487.349518,341.097382 489.201447,339.565125 493.398956,340.004150 
	C494.387177,340.107513 495.401794,340.107391 496.391815,340.017517 
	C500.423767,339.651398 502.140808,341.356964 502.033234,345.489105 
	C501.855682,352.307617 502.141052,359.138123 501.967529,365.956848 
	C501.874634,369.606537 503.246613,371.090729 506.904297,370.991302 
	C512.558655,370.837585 518.236633,371.218353 523.874146,370.874237 
	C529.118835,370.554108 529.330872,373.509216 529.329773,377.434662 
	C529.328613,381.497650 529.259521,384.697052 523.662659,384.321381 
	C517.864136,383.932159 512.017090,384.321960 506.194183,384.215302 
	C503.201599,384.160522 501.993347,385.421112 502.030182,388.372223 
	C502.109039,394.695343 502.042694,401.020264 502.035583,407.819946 
z"/>
<path fill="#000000" opacity="1.000000" stroke="none" 
	d="
M367.190857,276.899475 
	C367.137573,285.558044 366.652802,286.085754 360.681519,285.964874 
	C357.361450,285.897675 355.807068,284.651489 355.865509,281.195007 
	C355.980927,274.364807 355.782410,267.528809 355.930420,260.699890 
	C356.005829,257.221375 354.551300,255.933899 351.179688,256.004700 
	C345.183319,256.130646 339.179230,255.924393 333.184662,256.087952 
	C329.107666,256.199188 328.675598,253.884766 328.682770,250.643280 
	C328.689758,247.485687 328.891296,245.012894 333.040649,245.101273 
	C338.702972,245.221832 344.383972,244.824234 350.032532,245.118408 
	C354.731689,245.363144 356.160461,243.464096 355.958374,238.987488 
	C355.680573,232.835144 356.125458,226.650833 355.867462,220.496719 
	C355.650208,215.313995 358.892517,215.730225 362.388214,215.503220 
	C366.268646,215.251266 367.330475,216.874908 367.233887,220.441757 
	C367.062531,226.769318 367.429077,233.116699 367.117615,239.433426 
	C366.895752,243.933517 368.705383,245.311630 372.948273,245.121490 
	C378.436371,244.875519 383.948364,245.197983 389.441284,245.013763 
	C393.588226,244.874695 394.372681,246.967300 394.370331,250.588165 
	C394.368073,254.138260 393.469879,255.712280 389.562897,255.576050 
	C383.747650,255.373260 377.910675,255.897720 372.085236,255.846619 
	C368.423706,255.814484 367.025208,257.269470 367.163605,260.920197 
	C367.359192,266.078278 367.198944,271.249817 367.190857,276.899475 
z"/>
<path fill="#000000" opacity="1.000000" stroke="none" 
	d="
M500.173218,153.785004 
	C500.036865,160.289124 495.453583,157.944275 492.433258,158.246384 
	C489.009766,158.588806 488.912018,156.055145 488.910522,153.582153 
	C488.906372,146.594086 488.788849,139.604691 488.895630,132.618561 
	C488.945038,129.386536 487.641022,128.174591 484.440277,128.260529 
	C478.787323,128.412262 473.122101,128.150482 467.472076,128.348877 
	C463.650085,128.483109 461.623230,127.582184 461.663300,123.154022 
	C461.700958,118.987015 463.219299,117.537735 467.277954,117.696426 
	C472.926086,117.917244 478.594452,117.598648 484.245239,117.783539 
	C487.744598,117.898041 488.977661,116.468475 488.915710,113.087341 
	C488.790710,106.268082 489.057220,99.439491 488.842285,92.624840 
	C488.712769,88.518852 490.577942,87.556198 494.273987,87.613800 
	C497.885132,87.670067 500.401855,88.019577 500.230530,92.642929 
	C499.978119,99.455040 500.285889,106.286201 500.141205,113.104713 
	C500.069244,116.495674 501.257019,117.905548 504.772552,117.793671 
	C510.756042,117.603264 516.755310,117.905952 522.738647,117.713264 
	C526.736450,117.584511 527.380371,119.668762 527.361816,123.002037 
	C527.343750,126.247513 526.927856,128.492538 522.835144,128.345535 
	C517.019348,128.136627 511.183167,128.473053 505.369202,128.239502 
	C501.525970,128.085129 499.963196,129.347778 500.110321,133.346130 
	C500.354858,139.992462 500.177765,146.654282 500.173218,153.785004 
z"/>
<path fill="#000000" opacity="1.000000" stroke="none" 
	d="
M465.830872,471.467529 
	C463.275085,482.562134 449.567383,488.395172 440.424438,482.691437 
	C438.884888,481.731049 438.687225,480.403656 438.682861,478.868042 
	C438.649689,467.236816 438.655670,455.605194 438.550110,443.974640 
	C438.527985,441.537720 439.281158,440.162933 441.883514,440.152313 
	C444.449463,440.141846 445.394226,441.474182 445.339081,443.912628 
	C445.264893,447.190918 445.320679,450.472168 445.320679,453.667053 
	C462.352264,455.485809 466.445496,459.035950 465.830872,471.467529 
M451.124817,477.614960 
	C457.563324,475.571350 460.253967,470.205780 457.526978,464.811890 
	C455.621826,461.043488 452.321167,460.701477 448.644043,461.178375 
	C444.693573,461.690704 445.445587,464.685669 445.365875,467.237915 
	C445.314362,468.887207 445.451935,470.548187 445.313843,472.187866 
	C445.001709,475.893738 446.410095,477.903137 451.124817,477.614960 
z"/>
<path fill="#000000" opacity="1.000000" stroke="none" 
	d="
M399.442505,454.199951 
	C400.014862,454.338348 400.178497,454.407288 400.339874,454.402283 
	C410.297424,454.093475 410.298248,454.092957 410.268616,464.346863 
	C410.255157,469.000366 410.142273,473.656189 410.255920,478.306549 
	C410.329620,481.322754 409.029877,482.836884 406.128448,483.526886 
	C402.004547,484.507629 397.862701,484.714752 393.783569,483.814026 
	C385.598755,482.006714 381.377991,474.912659 382.823730,465.846283 
	C384.130402,457.651825 389.984375,453.408173 399.442505,454.199951 
M395.209900,461.299683 
	C390.735321,463.877930 389.107666,467.886688 390.793121,472.486298 
	C392.272980,476.524689 395.538544,477.833160 399.491180,477.598358 
	C403.993500,477.330872 402.463776,473.686493 402.807739,471.164215 
	C402.963074,470.025269 402.868469,468.850922 402.870178,467.692627 
	C402.879333,461.490570 402.408875,461.043793 395.209900,461.299683 
z"/>
<path fill="#000000" opacity="1.000000" stroke="none" 
	d="
M574.883911,462.357971 
	C578.616211,455.462982 583.108704,453.268219 590.621216,454.282654 
	C591.748413,454.434875 592.935059,454.490662 594.052002,454.317902 
	C601.079041,453.231018 601.297424,453.388489 601.307556,460.630585 
	C601.315735,466.441132 601.175476,472.254822 601.329529,478.061066 
	C601.415588,481.305664 600.078369,482.908051 596.962219,483.588898 
	C593.001282,484.454285 589.015381,484.716858 585.110779,483.859039 
	C575.650208,481.780609 571.690979,473.532196 574.883911,462.357971 
M593.904358,465.058929 
	C593.675049,460.805176 590.731873,460.386871 587.547424,460.868896 
	C583.493896,461.482422 581.628845,464.315491 581.364563,468.199799 
	C581.077393,472.419434 582.536438,475.729736 586.835510,477.194122 
	C591.632507,478.828125 593.716858,477.402832 593.869629,472.414093 
	C593.935791,470.254883 593.909912,468.092834 593.904358,465.058929 
z"/>
<path fill="#000000" opacity="1.000000" stroke="none" 
	d="
M539.064697,477.724182 
	C542.354126,477.985413 544.912659,476.455658 547.921448,476.012360 
	C549.782959,479.501434 549.549561,481.988586 545.580078,483.507324 
	C532.601318,488.473175 521.117249,479.724640 522.743469,466.071320 
	C523.590698,458.958160 529.631104,453.701111 536.796753,453.840515 
	C543.919800,453.979095 549.399170,459.025238 550.246521,466.097992 
	C550.642456,469.402527 549.588379,471.053650 545.993774,471.090668 
	C540.945984,471.142609 535.828979,470.507538 530.508057,471.664764 
	C531.597107,476.558258 534.706116,477.718933 539.064697,477.724182 
M540.039795,461.415680 
	C536.333313,460.028229 533.472717,460.915039 531.152161,464.711853 
	C534.205505,465.816925 536.977966,465.775055 539.704407,465.527863 
	C543.372070,465.195251 542.304077,463.501038 540.039795,461.415680 
z"/>
<path fill="#000000" opacity="1.000000" stroke="none" 
	d="
M346.665405,458.556458 
	C350.219269,458.847382 353.369415,458.960785 356.519470,459.075378 
	C358.828888,459.159393 360.945312,459.498718 360.917053,462.540283 
	C360.890839,465.358917 359.199463,466.013733 356.685791,466.228302 
	C352.984253,466.544159 348.301636,464.381714 345.813232,467.576050 
	C343.543915,470.489166 345.241028,474.988373 344.965637,478.776031 
	C344.881622,479.931366 344.843658,481.104675 344.602661,482.230835 
	C344.135986,484.411957 342.383514,484.367004 340.673309,484.317169 
	C338.935425,484.266541 337.814911,483.530762 337.763031,481.654602 
	C337.712524,479.828247 337.685883,478.001190 337.659393,476.174286 
	C337.498810,465.099182 339.151001,466.303314 327.957153,466.189270 
	C326.960297,466.179108 325.963531,466.151337 324.966675,466.148010 
	C322.562897,466.139923 321.235931,465.071716 321.265228,462.537933 
	C321.295227,459.940918 322.814514,459.093781 325.131592,459.078186 
	C328.122223,459.058075 331.112671,459.003632 334.103302,458.990662 
	C336.571991,458.979980 337.722626,457.817474 337.665741,455.302460 
	C337.594391,452.147217 337.723999,448.987549 337.660950,445.831940 
	C337.611603,443.360748 338.643341,442.103210 341.180511,442.145996 
	C343.592163,442.186676 344.727417,443.342651 344.995056,445.770935 
	C345.457947,449.970367 343.700287,454.397797 346.665405,458.556458 
z"/>
<path fill="#000000" opacity="1.000000" stroke="none" 
	d="
M650.589478,477.943268 
	C646.452026,483.675568 640.217834,485.605469 633.603699,483.516876 
	C627.722656,481.659760 625.700317,478.430634 625.677551,470.790649 
	C625.665100,466.624237 625.741699,462.457062 625.685913,458.291473 
	C625.652161,455.768799 626.757507,454.700500 629.288391,454.691254 
	C631.810730,454.682068 633.006775,455.797668 633.018921,458.255859 
	C633.042053,462.922089 633.069275,467.588531 633.044434,472.254608 
	C633.026001,475.711060 634.301331,478.285645 638.036743,478.441833 
	C642.032776,478.608887 644.304993,476.198883 644.548340,472.362488 
	C644.832642,467.879425 644.692993,463.366943 644.665894,458.867645 
	C644.651184,456.428741 645.049316,454.631622 648.169373,454.706085 
	C650.995483,454.773529 651.469910,456.421539 651.380920,458.642975 
	C651.128235,464.950348 652.065369,471.295746 650.589478,477.943268 
z"/>
<path fill="#000000" opacity="1.000000" stroke="none" 
	d="
M497.266815,462.000061 
	C497.262787,469.978149 497.224579,477.456421 497.272949,484.934174 
	C497.290253,487.607758 496.748871,489.430084 493.451355,489.346954 
	C490.504822,489.272675 489.802826,487.679962 489.803406,485.190887 
	C489.807129,469.736267 489.805359,454.281647 489.765991,438.827087 
	C489.759613,436.311127 490.419891,434.729858 493.375458,434.678436 
	C496.591919,434.622528 497.295898,436.338959 497.276917,439.065918 
	C497.224854,446.543640 497.263824,454.021942 497.266815,462.000061 
z"/>
<path fill="#000000" opacity="1.000000" stroke="none" 
	d="
M664.026123,461.012878 
	C662.109619,462.560455 660.166687,463.016907 658.938293,461.192780 
	C657.830688,459.548035 658.039185,457.213287 659.067017,455.575195 
	C659.902527,454.243500 661.825867,454.343109 663.173828,455.169098 
	C665.403748,456.535583 665.776489,458.482208 664.026123,461.012878 
z"/>
</svg>